<svg width="2146" height="801" viewBox="0 0 2146 801" fill="none" xmlns="http://www.w3.org/2000/svg">
<path d="M765 1H559L1 573V668H167L765 52V1Z" fill="url(#paint0_linear_2_19)" stroke="url(#paint1_linear_2_19)"/>
<path d="M17 149L154 1H559L414.633 149H17Z" fill="url(#paint2_linear_2_19)" stroke="url(#paint3_linear_2_19)"/>
<path d="M624 668H167L331 499H778L624 668Z" fill="url(#paint4_linear_2_19)" stroke="url(#paint5_linear_2_19)"/>
<path d="M1003.73 671.607C974.547 671.607 949.014 668.152 927.129 661.241C905.627 653.946 887.582 643.387 872.991 629.564C858.785 615.742 848.226 598.848 841.315 578.883C834.404 558.533 830.948 535.304 830.948 509.195C830.948 476.559 836.9 448.146 848.802 423.957C861.089 399.384 877.983 380.378 899.484 366.94C921.37 353.502 946.902 346.782 976.083 346.782C1009.87 346.782 1037.13 353.694 1057.87 367.516C1078.6 381.338 1093.38 400.728 1102.21 425.685C1111.43 450.642 1115.46 479.631 1114.31 512.651L1113.73 528.777H867.808V485.006H1059.02V480.398C1059.02 451.602 1052.11 429.909 1038.28 415.318C1024.46 400.344 1003.73 392.857 976.083 392.857C959.957 392.857 944.983 396.313 931.16 403.224C917.338 410.135 906.203 421.845 897.756 438.355C889.309 454.866 885.086 477.327 885.086 505.739V509.195C885.086 538.759 890.269 561.989 900.636 578.883C911.003 595.777 925.209 607.871 943.255 615.166C961.685 622.077 982.61 625.533 1006.03 625.533C1025.61 625.533 1042.31 623.613 1056.14 619.774C1069.96 615.934 1080.9 611.711 1088.97 607.103H1093.57V654.33C1084.36 658.937 1072.26 662.968 1057.29 666.424C1042.31 669.88 1024.46 671.607 1003.73 671.607ZM1199.94 667V468.88C1199.94 461.201 1199.74 451.218 1199.36 438.931C1199.36 426.645 1198.98 414.55 1198.21 402.648C1197.82 390.745 1196.86 381.338 1195.33 374.427L1196.48 369.82C1206.46 365.98 1219.13 362.333 1234.49 358.877C1249.85 355.421 1265.4 352.542 1281.14 350.238C1296.88 347.934 1310.51 346.782 1322.03 346.782C1341.23 346.782 1359.08 348.894 1375.59 353.118C1392.1 356.957 1406.69 364.06 1419.37 374.427C1432.42 384.41 1442.4 398.232 1449.31 415.894C1456.61 433.172 1460.26 455.441 1460.26 482.702V667H1407.27V487.31C1407.27 461.969 1403.62 442.579 1396.33 429.141C1389.03 415.318 1378.47 405.911 1364.65 400.92C1350.83 395.545 1334.32 392.857 1315.12 392.857C1302.84 392.857 1289.59 394.201 1275.38 396.888C1261.56 399.576 1249.47 402.84 1239.1 406.679L1248.31 390.553C1249.85 396.313 1251 403.608 1251.77 412.439C1252.54 420.886 1252.92 429.717 1252.92 438.931V667H1199.94ZM1582.31 800.616V793.705L1653.73 618.622L1755.09 353.694H1808.08V360.605L1632.99 800.616H1582.31ZM1639.91 678.519L1513.2 360.605V353.694H1568.49L1670.43 619.774L1639.91 678.519ZM1970.78 673.911C1925.86 673.911 1892.07 665.848 1869.42 649.722C1847.15 633.212 1836.02 608.255 1836.02 574.851C1836.02 552.582 1841.39 534.152 1852.14 519.562C1863.28 504.971 1878.83 494.029 1898.79 486.734C1919.14 479.439 1943.14 475.791 1970.78 475.791C1992.28 475.791 2010.14 477.711 2024.34 481.55C2038.93 485.006 2051.41 488.461 2061.78 491.917V533.384C2051.41 529.928 2038.55 526.857 2023.19 524.169C2007.83 521.098 1993.44 519.562 1980 519.562C1948.9 519.562 1925.67 523.593 1910.31 531.656C1895.34 539.719 1887.85 554.118 1887.85 574.851C1887.85 594.433 1895.14 608.639 1909.73 617.47C1924.32 625.917 1945.44 630.14 1973.09 630.14C1988.44 630.14 2003.23 628.989 2017.43 626.685C2031.64 623.997 2044.89 620.542 2057.17 616.318L2046.81 631.868C2046.04 628.797 2045.27 625.341 2044.5 621.501C2044.12 617.662 2043.73 613.63 2043.35 609.407C2042.97 605.183 2042.58 600.768 2042.2 596.161C2042.2 591.553 2042.2 586.754 2042.2 581.762V478.095C2042.2 453.522 2038.74 435.284 2031.83 423.381C2025.3 411.095 2015.32 403.032 2001.88 399.192C1988.83 394.969 1972.32 392.857 1952.35 392.857C1937.38 392.857 1922.02 394.777 1906.28 398.616C1890.92 402.456 1878.63 406.679 1869.42 411.287H1864.81V364.06C1878.63 358.301 1893.99 354.078 1910.89 351.39C1928.16 348.318 1944.29 346.782 1959.26 346.782C1978.46 346.782 1996.12 348.51 2012.25 351.966C2028.76 355.421 2043.16 361.757 2055.44 370.972C2068.12 379.803 2077.91 392.665 2084.82 409.559C2091.73 426.453 2095.18 448.53 2095.18 475.791V551.814C2095.18 559.493 2095.18 569.476 2095.18 581.762C2095.57 594.049 2095.95 606.143 2096.34 618.046C2097.1 629.948 2098.26 639.355 2099.79 646.266L2098.64 650.874C2085.97 655.481 2071.95 659.513 2056.6 662.968C2041.24 666.424 2025.88 669.112 2010.52 671.032C1995.55 672.951 1982.3 673.911 1970.78 673.911Z" fill="url(#paint6_linear_2_19)"/>
<defs>
<linearGradient id="paint0_linear_2_19" x1="765" y1="1.00005" x2="0.999981" y2="668" gradientUnits="userSpaceOnUse">
<stop stop-color="#B1DAAE"/>
<stop offset="1" stop-color="#3A5A53"/>
</linearGradient>
<linearGradient id="paint1_linear_2_19" x1="765" y1="1.00005" x2="0.999981" y2="668" gradientUnits="userSpaceOnUse">
<stop stop-color="#B1DAAE"/>
<stop offset="1" stop-color="#3A5A53"/>
</linearGradient>
<linearGradient id="paint2_linear_2_19" x1="20" y1="149" x2="557" y2="0.999979" gradientUnits="userSpaceOnUse">
<stop stop-color="#58776B"/>
<stop offset="1" stop-color="#283C45"/>
</linearGradient>
<linearGradient id="paint3_linear_2_19" x1="20" y1="149" x2="557" y2="0.999979" gradientUnits="userSpaceOnUse">
<stop stop-color="#58776B"/>
<stop offset="1" stop-color="#283C45"/>
</linearGradient>
<linearGradient id="paint4_linear_2_19" x1="167" y1="668" x2="778" y2="499" gradientUnits="userSpaceOnUse">
<stop stop-color="#273945"/>
<stop offset="1" stop-color="#85A78E"/>
</linearGradient>
<linearGradient id="paint5_linear_2_19" x1="167" y1="668" x2="778" y2="499" gradientUnits="userSpaceOnUse">
<stop stop-color="#273945"/>
<stop offset="1" stop-color="#85A78E"/>
</linearGradient>
<linearGradient id="paint6_linear_2_19" x1="830" y1="408.154" x2="2104" y2="406.942" gradientUnits="userSpaceOnUse">
<stop stop-color="#82A48C"/>
<stop offset="1" stop-color="#30444C"/>
</linearGradient>
</defs>
</svg>
